<?xml version="1.0" standalone="no"?>
<!DOCTYPE svg PUBLIC "-//W3C//DTD SVG 20010904//EN"
 "http://www.w3.org/TR/2001/REC-SVG-20010904/DTD/svg10.dtd">
<svg version="1.0" xmlns="http://www.w3.org/2000/svg"
 width="306.000000pt" height="273.000000pt" viewBox="0 0 306.000000 273.000000"
 preserveAspectRatio="xMidYMid meet">

<g transform="translate(0.000000,273.000000) scale(0.100000,-0.100000)"
fill="#000000" stroke="none">
<path d="M1738 2631 c-31 -10 -72 -28 -92 -41 -36 -22 -36 -22 -69 -3 -166 98
-395 56 -522 -95 -27 -33 -29 -33 -89 -27 -214 23 -434 -129 -486 -336 -11
-43 -15 -47 -67 -69 -31 -13 -80 -46 -114 -77 -94 -87 -140 -201 -154 -379 -5
-69 -12 -97 -31 -124 -90 -135 -95 -304 -13 -470 36 -71 157 -203 243 -265
100 -71 310 -193 481 -280 l160 -81 -32 -63 c-61 -118 -39 -210 62 -261 46
-23 59 -25 175 -23 69 1 170 10 225 20 l100 18 60 -24 c46 -20 78 -25 140 -26
103 0 169 30 260 121 60 58 69 64 108 64 23 0 83 7 132 15 228 37 318 92 318
195 0 43 -27 97 -86 173 l-46 59 211 226 c322 346 382 430 413 579 18 86 18
121 0 208 -29 139 -119 277 -225 345 -39 25 -50 38 -50 59 0 14 -6 49 -14 77
-53 198 -230 334 -437 334 -61 0 -67 2 -88 30 -30 41 -114 95 -185 120 -77 26
-207 26 -288 1z m207 -42 c75 -14 144 -49 202 -102 l46 -42 -7 -254 c-14 -542
-73 -958 -203 -1443 l-37 -138 -68 0 -68 0 0 48 c-1 97 -30 575 -50 807 -25
291 -62 629 -96 864 -14 96 -22 181 -19 188 6 18 101 61 157 72 61 12 77 12
143 0z m-452 -29 c88 -33 83 -21 116 -265 75 -556 131 -1190 134 -1527 l2
-163 -45 -6 c-25 -4 -61 -11 -81 -17 l-36 -10 -67 180 c-180 482 -316 956
-415 1453 l-41 199 39 46 c98 117 257 161 394 110z m982 -179 c117 -58 203
-180 212 -305 4 -55 -1 -78 -57 -241 -134 -390 -320 -811 -515 -1169 -44 -81
-48 -86 -73 -80 -41 10 -41 11 -26 61 34 110 105 414 134 569 58 321 87 604
97 968 l6 239 80 -6 c61 -4 93 -12 142 -36z m-1475 12 c4 -4 22 -84 40 -178
90 -472 273 -1110 443 -1545 l45 -114 -44 -20 c-25 -10 -46 -17 -47 -15 -24
31 -187 269 -264 384 -186 279 -418 671 -573 969 l-83 157 17 66 c47 191 219
322 405 308 30 -2 57 -7 61 -12z m-452 -545 c207 -402 528 -924 785 -1282 l57
-78 -41 -30 c-22 -16 -45 -26 -52 -21 -31 18 -226 179 -362 299 -229 201 -623
615 -718 754 -21 30 -21 96 -2 204 24 138 89 239 190 297 27 16 51 29 52 29 1
0 42 -78 91 -172z m2297 46 c57 -57 111 -168 127 -262 22 -132 -16 -257 -123
-399 -49 -64 -635 -703 -646 -703 -4 0 -65 30 -71 35 -2 2 28 62 67 133 176
327 370 772 497 1146 l46 136 29 -21 c15 -11 49 -40 74 -65z m-2567 -571 c268
-315 593 -629 888 -860 46 -36 84 -69 84 -73 0 -4 -9 -15 -20 -25 -25 -22 -19
-25 -305 118 -388 193 -560 301 -676 425 -143 150 -187 339 -114 487 14 30 28
55 30 55 2 0 53 -57 113 -127z m2184 -861 c37 -81 -3 -120 -164 -161 -41 -11
-108 -23 -147 -27 l-72 -7 54 79 c29 44 93 121 142 171 l88 93 40 -53 c21 -28
48 -72 59 -95z m-422 64 c50 -13 97 -29 102 -34 15 -15 -100 -186 -187 -279
-89 -97 -169 -138 -253 -131 -32 3 -94 21 -137 39 -83 34 -279 159 -288 183
-10 24 92 105 200 160 123 61 220 85 354 85 92 1 136 -4 209 -23z m-785 -287
c33 -25 86 -62 118 -82 67 -40 69 -37 -72 -58 -98 -14 -228 -6 -271 16 -16 8
-35 25 -41 37 -17 32 -6 108 25 160 l27 47 77 -37 c42 -19 104 -57 137 -83z"/>
</g>
</svg>
